<svg width="46" height="45" viewBox="0 0 46 45" fill="none" xmlns="http://www.w3.org/2000/svg">
<path fill-rule="evenodd" clip-rule="evenodd" d="M34.5085 15.2898L23.9621 24.0236C23.6624 24.2719 23.2855 24.4078 22.8963 24.4078C22.5071 24.4078 22.1301 24.2719 21.8305 24.0236L11.2891 15.2898C11.2325 15.4601 11.2038 15.6383 11.2039 15.8177V29.1823C11.2039 29.6254 11.3799 30.0503 11.6932 30.3636C12.0065 30.6769 12.4314 30.8529 12.8745 30.8529H32.9214C33.3645 30.8529 33.7894 30.6769 34.1027 30.3636C34.416 30.0503 34.592 29.6254 34.592 29.1823V15.8177C34.5927 15.6384 34.5645 15.4602 34.5085 15.2898ZM12.8745 12.4766H32.9214C33.8075 12.4766 34.6574 12.8286 35.284 13.4552C35.9106 14.0818 36.2626 14.9316 36.2626 15.8177V29.1823C36.2626 30.0685 35.9106 30.9183 35.284 31.5449C34.6574 32.1715 33.8075 32.5235 32.9214 32.5235H12.8745C11.9884 32.5235 11.1385 32.1715 10.5119 31.5449C9.88534 30.9183 9.53333 30.0685 9.53333 29.1823V15.8177C9.53333 14.9316 9.88534 14.0818 10.5119 13.4552C11.1385 12.8286 11.9884 12.4766 12.8745 12.4766ZM12.5237 14.1471L21.8388 21.8368C22.1371 22.0832 22.5118 22.2184 22.8987 22.2194C23.2857 22.2203 23.6609 22.0868 23.9604 21.8418L33.3691 14.1471H12.5237Z" fill="#141751"/>
</svg>
