<svg width="46" height="45" viewBox="0 0 46 45" fill="none" xmlns="http://www.w3.org/2000/svg">
<path d="M35.019 27.4109L28.6278 24.5467C28.3382 24.4227 28.0223 24.3728 27.7086 24.4016C27.3949 24.4304 27.0933 24.537 26.8312 24.7118C26.8046 24.7289 26.7793 24.7479 26.7554 24.7686L23.415 27.6097C23.3804 27.6286 23.3418 27.6392 23.3024 27.6406C23.2629 27.642 23.2237 27.6342 23.1878 27.6178C21.0407 26.5815 18.8165 24.3709 17.7761 22.2535C17.7588 22.2182 17.7498 22.1793 17.7498 22.1399C17.7498 22.1005 17.7588 22.0616 17.7761 22.0263L20.6267 18.644C20.6472 18.619 20.6661 18.5928 20.6835 18.5655C20.8559 18.3024 20.96 18.0004 20.9864 17.687C21.0129 17.3736 20.9608 17.0585 20.835 16.7702L17.9912 10.3898C17.8297 10.0132 17.5504 9.69909 17.1952 9.49467C16.8401 9.29025 16.4282 9.20653 16.0214 9.25609C14.2534 9.48852 12.6306 10.3567 11.4561 11.6985C10.2817 13.0403 9.63596 14.7638 9.63966 16.5469C9.63966 27.1403 18.2577 35.7583 28.8511 35.7583C30.6341 35.7617 32.3575 35.1159 33.6992 33.9415C35.0409 32.7671 35.9092 31.1445 36.1419 29.3766C36.1914 28.9717 36.1088 28.5617 35.9065 28.2075C35.7041 27.8533 35.3929 27.5739 35.019 27.4109ZM28.8511 34.1348C19.1534 34.1348 11.2632 26.2446 11.2632 16.5469C11.2586 15.1588 11.7597 13.8164 12.6727 12.7707C13.5857 11.725 14.8482 11.0475 16.2243 10.8647H16.2554C16.3099 10.8657 16.3629 10.8832 16.4073 10.9148C16.4517 10.9464 16.4856 10.9908 16.5044 11.0419L19.359 17.4155C19.3753 17.451 19.3837 17.4895 19.3837 17.5285C19.3837 17.5675 19.3753 17.606 19.359 17.6415L16.503 21.0319C16.4818 21.0561 16.4624 21.0819 16.4448 21.109C16.2661 21.3818 16.1609 21.6961 16.1393 22.0216C16.1177 22.347 16.1806 22.6725 16.3217 22.9665C17.5217 25.4234 19.9976 27.8803 22.4815 29.0803C22.7773 29.2207 23.1043 29.282 23.4309 29.2583C23.7574 29.2346 24.0721 29.1267 24.3445 28.9451C24.3702 28.9275 24.3959 28.9085 24.4203 28.8882L27.7593 26.0471C27.7922 26.0294 27.8286 26.019 27.866 26.0167C27.9034 26.0143 27.9408 26.0201 27.9757 26.0336L34.3682 28.8977C34.4205 28.9199 34.4644 28.958 34.4937 29.0066C34.5231 29.0551 34.5365 29.1117 34.5319 29.1683C34.3501 30.545 33.6732 31.8085 32.6278 32.7225C31.5823 33.6365 30.2397 34.1386 28.8511 34.1348Z" fill="#141751"/>
</svg>
