<svg width="50" height="51" viewBox="0 0 50 51" fill="none" xmlns="http://www.w3.org/2000/svg">
<g id="ei:arrow-up">
<g id="Group 116046294">
<path id="Vector" d="M42.0001 25.5002C42.0001 34.9002 34.4001 42.5002 25.0001 42.5002C15.6001 42.5002 8.00012 34.9002 8.00012 25.5002C8.00012 16.1002 15.6001 8.50024 25.0001 8.50024C34.4001 8.50024 42.0001 16.1002 42.0001 25.5002ZM10.0001 25.5002C10.0001 33.8002 16.7001 40.5002 25.0001 40.5002C33.3001 40.5002 40.0001 33.8002 40.0001 25.5002C40.0001 17.2002 33.3001 10.5002 25.0001 10.5002C16.7001 10.5002 10.0001 17.2002 10.0001 25.5002Z" fill="#3A8ACA"/>
<path id="Vector_2" d="M26.7002 17.2002L18.4002 25.5002L26.7002 33.8002L25.3002 35.2002L15.6002 25.5002L25.3002 15.8002L26.7002 17.2002Z" fill="#3A8ACA"/>
<path id="Vector_3" d="M17.0001 26.5002V24.5002L34.0001 24.5002V26.5002L17.0001 26.5002Z" fill="#3A8ACA"/>
</g>
</g>
</svg>
