<svg width="50" height="51" viewBox="0 0 50 51" fill="none" xmlns="http://www.w3.org/2000/svg">
<g id="ei:arrow-up">
<g id="Group 116046294">
<path id="Vector" d="M8 25.5C8 16.1 15.6 8.5 25 8.5C34.4 8.5 42 16.1 42 25.5C42 34.9 34.4 42.5 25 42.5C15.6 42.5 8 34.9 8 25.5ZM40 25.5C40 17.2 33.3 10.5 25 10.5C16.7 10.5 10 17.2 10 25.5C10 33.8 16.7 40.5 25 40.5C33.3 40.5 40 33.8 40 25.5Z" fill="#3A8ACA"/>
<path id="Vector_2" d="M23.2999 33.8L31.5999 25.5L23.2999 17.2L24.6999 15.8L34.3999 25.5L24.6999 35.2001L23.2999 33.8Z" fill="#3A8ACA"/>
<path id="Vector_3" d="M33 24.5V26.5H16V24.5H33Z" fill="#3A8ACA"/>
</g>
</g>
</svg>
