<svg width="1520" height="961" viewBox="0 0 1520 961" fill="none" xmlns="http://www.w3.org/2000/svg">
<path d="M6.95486 70.3924C2.97497 70.9168 0 74.3095 0 78.3238V388.362C0 388.371 1.43124e-05 388.38 4.29153e-05 388.389V912.556C4.29153e-05 917.264 4.04535 920.954 8.73342 920.522L706.351 856.3C707.585 856.187 708.829 856.361 709.985 856.811L975.648 960.163C977.054 960.71 978.586 960.848 980.067 960.561L1513.52 857.381C1517.28 856.653 1520 853.359 1520 849.526V35.4081C1520 30.7928 1516.11 27.1349 1511.5 27.4238L813.068 71.2276C812.21 71.2814 811.349 71.1966 810.518 70.9763L543.728 0.266992C542.719 -0.000362813 541.668 -0.0677704 540.633 0.0685645L6.95486 70.3924Z" fill="#AFCFE9"/>
</svg>
