<svg width="391" height="1200" viewBox="0 0 391 1200" fill="none" xmlns="http://www.w3.org/2000/svg">
<path d="M151.773 31.6785C151.189 31.822 150.58 31.8319 149.992 31.7075L4.8273 1.02047C2.34021 0.494709 0 2.39194 0 4.93399V402.313C0 404.522 1.79086 406.313 4 406.313H387C389.209 406.313 391 404.522 391 402.313V4C391 1.79086 389.209 0 387 0H281.202C280.88 0 280.56 0.0387818 280.248 0.115508L151.773 31.6785Z" fill="#AFCFE9"/>
<path d="M239.227 1168.32C239.811 1168.18 240.42 1168.17 241.008 1168.29L386.173 1198.98C388.66 1199.51 391 1197.61 391 1195.07V797.687C391 795.478 389.209 793.687 387 793.687H4C1.79086 793.687 0 795.478 0 797.687V1196C0 1198.21 1.79087 1200 4.00001 1200H109.798C110.12 1200 110.44 1199.96 110.752 1199.88L239.227 1168.32Z" fill="#AFCFE9"/>
<path d="M0 232H195.5H391V920H0V232Z" fill="#AFCFE9"/>
</svg>
