<svg width="75" height="75" viewBox="0 0 75 75" fill="none" xmlns="http://www.w3.org/2000/svg">
<g id="Layer_1">
<path id="Vector" d="M69.1406 4.6875H5.85938C3.92578 4.6875 2.34375 6.26953 2.34375 8.20312V66.7969C2.34375 68.7305 3.92578 70.3125 5.85938 70.3125H69.1406C71.0742 70.3125 72.6562 68.7305 72.6562 66.7969V8.20312C72.6562 6.26953 71.0742 4.6875 69.1406 4.6875ZM70.3125 66.7969C70.3125 67.4414 69.7852 67.9688 69.1406 67.9688H5.85938C5.21484 67.9688 4.6875 67.4414 4.6875 66.7969V14.0625H70.3125V66.7969ZM70.3125 11.7188H4.6875V8.20312C4.6875 7.55859 5.21484 7.03125 5.85938 7.03125H69.1406C69.7852 7.03125 70.3125 7.55859 70.3125 8.20312V11.7188Z" fill="#141751"/>
<path id="Vector_2" d="M56.25 8.20312H58.5938V10.5469H56.25V8.20312Z" fill="#141751"/>
<path id="Vector_3" d="M60.9375 8.20312H63.2812V10.5469H60.9375V8.20312Z" fill="#141751"/>
<path id="Vector_4" d="M65.625 8.20312H67.9688V10.5469H65.625V8.20312Z" fill="#141751"/>
<path id="Vector_5" d="M12.8906 53.9062C9.65625 53.9062 7.03125 56.5312 7.03125 59.7656C7.03125 63 9.65625 65.625 12.8906 65.625C16.125 65.625 18.75 63 18.75 59.7656C18.75 58.8516 18.5273 58.0078 18.1523 57.2344L24.2812 52.5586C27.5039 56.25 32.2266 58.5938 37.5 58.5938C42.7734 58.5938 47.4961 56.25 50.7188 52.5586L56.8477 57.2344C56.4727 58.0078 56.25 58.8516 56.25 59.7656C56.25 63 58.875 65.625 62.1094 65.625C65.3438 65.625 67.9688 63 67.9688 59.7656C67.9688 56.5312 65.3438 53.9062 62.1094 53.9062C60.6328 53.9062 59.3086 54.4688 58.2773 55.3711L52.1602 50.707C53.8008 48.2344 54.8203 45.3164 55.0312 42.1875H57.6445C58.125 43.5469 59.4141 44.5312 60.9492 44.5312C62.8828 44.5312 64.4648 42.9492 64.4648 41.0156C64.4648 39.082 62.8828 37.5 60.9492 37.5C59.4258 37.5 58.1367 38.4844 57.6445 39.8438H55.0312C54.8203 36.7148 53.8008 33.7969 52.1602 31.3242L58.2773 26.6602C59.3086 27.5625 60.6445 28.125 62.1094 28.125C65.3438 28.125 67.9688 25.5 67.9688 22.2656C67.9688 19.0312 65.3438 16.4062 62.1094 16.4062C58.875 16.4062 56.25 19.0312 56.25 22.2656C56.25 23.1797 56.4727 24.0234 56.8477 24.7969L50.7188 29.4727C47.4961 25.7812 42.7734 23.4375 37.5 23.4375C32.2266 23.4375 27.5039 25.7812 24.2812 29.4727L18.1523 24.7969C18.5273 24.0234 18.75 23.1797 18.75 22.2656C18.75 19.0312 16.125 16.4062 12.8906 16.4062C9.65625 16.4062 7.03125 19.0312 7.03125 22.2656C7.03125 25.5 9.65625 28.125 12.8906 28.125C14.3672 28.125 15.6914 27.5625 16.7227 26.6602L22.8398 31.3242C21.1992 33.7969 20.1797 36.7148 19.9688 39.8438H17.3555C16.875 38.4844 15.5859 37.5 14.0508 37.5C12.1172 37.5 10.5352 39.082 10.5352 41.0156C10.5352 42.9492 12.1172 44.5312 14.0508 44.5312C15.5742 44.5312 16.8633 43.5469 17.3555 42.1875H19.9688C20.1797 45.3164 21.1992 48.2344 22.8398 50.707L16.7227 55.3711C15.6914 54.4688 14.3555 53.9062 12.8906 53.9062ZM12.8906 63.2812C10.957 63.2812 9.375 61.6992 9.375 59.7656C9.375 57.832 10.957 56.25 12.8906 56.25C14.8242 56.25 16.4062 57.832 16.4062 59.7656C16.4062 61.6992 14.8242 63.2812 12.8906 63.2812ZM62.1094 56.25C64.043 56.25 65.625 57.832 65.625 59.7656C65.625 61.6992 64.043 63.2812 62.1094 63.2812C60.1758 63.2812 58.5938 61.6992 58.5938 59.7656C58.5938 57.832 60.1758 56.25 62.1094 56.25ZM60.9375 39.8438C61.582 39.8438 62.1094 40.3711 62.1094 41.0156C62.1094 41.6602 61.582 42.1875 60.9375 42.1875C60.293 42.1875 59.7656 41.6602 59.7656 41.0156C59.7656 40.3711 60.293 39.8438 60.9375 39.8438ZM62.1094 18.75C64.043 18.75 65.625 20.332 65.625 22.2656C65.625 24.1992 64.043 25.7812 62.1094 25.7812C60.1758 25.7812 58.5938 24.1992 58.5938 22.2656C58.5938 20.332 60.1758 18.75 62.1094 18.75ZM12.8906 25.7812C10.957 25.7812 9.375 24.1992 9.375 22.2656C9.375 20.332 10.957 18.75 12.8906 18.75C14.8242 18.75 16.4062 20.332 16.4062 22.2656C16.4062 24.1992 14.8242 25.7812 12.8906 25.7812ZM14.0625 42.1875C13.418 42.1875 12.8906 41.6602 12.8906 41.0156C12.8906 40.3711 13.418 39.8438 14.0625 39.8438C14.707 39.8438 15.2344 40.3711 15.2344 41.0156C15.2344 41.6602 14.707 42.1875 14.0625 42.1875ZM45.7031 53.8359C43.3359 55.3594 40.5234 56.25 37.5 56.25C34.4766 56.25 31.6641 55.3594 29.2969 53.8359V50.3906C29.2969 48.457 30.8789 46.875 32.8125 46.875H42.1875C44.1211 46.875 45.7031 48.457 45.7031 50.3906V53.8359ZM22.2656 41.0156C22.2656 32.6133 29.0977 25.7812 37.5 25.7812C45.9023 25.7812 52.7344 32.6133 52.7344 41.0156C52.7344 45.3281 50.9297 49.207 48.0469 51.9844V50.3906C48.0469 47.1562 45.4219 44.5312 42.1875 44.5312H32.8125C29.5781 44.5312 26.9531 47.1562 26.9531 50.3906V51.9844C24.0703 49.207 22.2656 45.3281 22.2656 41.0156Z" fill="#141751"/>
<path id="Vector_6" d="M43.3594 38.6719C43.3594 35.4375 40.7344 32.8125 37.5 32.8125C34.2656 32.8125 31.6406 35.4375 31.6406 38.6719C31.6406 41.9062 34.2656 44.5312 37.5 44.5312C40.7344 44.5312 43.3594 41.9062 43.3594 38.6719ZM37.5 42.1875C35.5664 42.1875 33.9844 40.6055 33.9844 38.6719C33.9844 36.7383 35.5664 35.1562 37.5 35.1562C39.4336 35.1562 41.0156 36.7383 41.0156 38.6719C41.0156 40.6055 39.4336 42.1875 37.5 42.1875Z" fill="#141751"/>
</g>
</svg>
