<svg width="73" height="70" viewBox="0 0 73 70" fill="none" xmlns="http://www.w3.org/2000/svg">
<path id="Vector" fill-rule="evenodd" clip-rule="evenodd" d="M63.4481 21.9072H67.3797C70.3766 21.9072 72.8235 24.3541 72.8235 27.351V64.5209C72.8235 67.5178 70.3766 69.9647 67.3797 69.9647H5.62028C2.62336 69.9647 0.176453 67.5178 0.176453 64.5209V27.351C0.176453 24.3541 2.62336 21.9072 5.62028 21.9072H9.84366V4.74941C9.84366 2.12632 11.97 0 14.5929 0H58.6988C61.3217 0 63.4481 2.12632 63.4481 4.74941V21.9072ZM9.84366 23.966H5.62028C5.11395 23.966 4.63278 24.0784 4.20057 24.2794L9.84366 29.1013V23.966ZM4.60469 67.7497C4.92557 67.851 5.26675 67.9059 5.62028 67.9059H67.3797C67.885 67.9059 68.3651 67.794 68.7966 67.5938L44.7316 46.8512L36.5873 39.8307L28.6691 46.7387L4.60469 67.7497ZM2.67601 25.6847C2.39557 26.1772 2.23528 26.746 2.23528 27.351V64.5209C2.23528 65.2653 2.47807 65.955 2.88836 66.515L26.4175 45.9715L2.67601 25.6847ZM70.3222 66.1906C70.6037 65.6973 70.7647 65.1272 70.7647 64.5209V27.351C70.7647 26.7906 70.627 26.261 70.3839 25.7946L46.9782 46.0694L70.3222 66.1906ZM68.9203 24.3385C68.4578 24.1006 67.9338 23.966 67.3797 23.966H63.4481V29.0788L68.9203 24.3385ZM61.3892 30.8622V11.3635H11.9025V30.8604L27.9853 44.6031L35.9066 37.6925C36.2926 37.3557 36.8675 37.354 37.2554 37.6885L45.402 44.7109L61.3892 30.8622ZM49.4241 22.7957C48.865 22.8969 48.3289 22.5251 48.2278 21.966C48.1266 21.4071 48.4985 20.871 49.0575 20.7699L51.5482 20.3193C52.1072 20.2181 52.6432 20.5899 52.7444 21.149C52.8456 21.7079 52.4738 22.244 51.9147 22.3451L49.4241 22.7957ZM47.572 19.0926C47.1384 19.4599 46.4884 19.4059 46.1212 18.9724C45.754 18.5388 45.8079 17.8887 46.2415 17.5215L48.2788 15.7962C48.7125 15.429 49.3625 15.4828 49.7297 15.9165C50.0969 16.35 50.0429 17.0001 49.6094 17.3672L47.572 19.0926ZM47.9287 26.8268C47.3938 26.635 47.1151 26.0453 47.3069 25.5104C47.4985 24.9756 48.0884 24.6969 48.6232 24.8887L51.1367 25.7894C51.6716 25.9812 51.9503 26.5709 51.7587 27.1057C51.5669 27.6406 50.977 27.9193 50.4422 27.7275L47.9287 26.8268ZM25.587 30.9287C23.2122 31.0468 21.0431 29.3769 20.6085 26.9787C20.1347 24.3716 21.8823 21.8515 24.4884 21.3794L27.8609 20.7678C28.1298 20.7191 28.3934 20.7796 28.6057 20.9178C32.0262 19.8353 34.9281 18.2799 36.9666 16.4924C36.7853 15.0359 37.7797 13.6626 39.2407 13.3976C40.7531 13.1232 42.2147 14.1372 42.4891 15.6497L43.236 19.766C43.3382 19.7362 43.4429 19.7115 43.5501 19.6921C45.2198 19.3885 46.8197 20.4962 47.1228 22.1681C47.4263 23.8378 46.3187 25.4376 44.6467 25.7407C44.54 25.7601 44.4334 25.7738 44.3275 25.7819L45.0742 29.8979C45.3497 31.4087 44.3375 32.8718 42.8244 33.1463C41.364 33.4113 39.9504 32.4763 39.6079 31.0499C37.1728 30.1294 34.0672 29.69 30.6516 29.8237L32.2426 35.0694C32.5113 35.9547 32.0759 36.8859 31.2241 37.2382C31.1989 37.2487 31.1734 37.2581 31.1475 37.2665C31.1475 37.2665 29.666 37.7459 29.6672 37.7454C29.2069 37.9244 28.7384 37.9099 28.2831 37.7003L28.2825 37.7C27.8119 37.4829 27.486 37.1137 27.3326 36.6193C27.3322 36.6181 27.3319 36.6171 27.3316 36.616L25.587 30.9287ZM43.6098 21.8265L43.9537 23.7213C44.0588 23.7365 44.1684 23.7351 44.2787 23.7151L44.2794 23.715C44.8313 23.615 45.1973 23.0872 45.0972 22.5362L45.097 22.5354C44.997 21.9835 44.4692 21.6175 43.9182 21.7178H43.9175C43.8066 21.7379 43.7034 21.7751 43.6098 21.8265ZM39.6082 15.4234C39.21 15.4956 38.9437 15.8807 39.0159 16.279L41.6012 30.5282C41.6735 30.9265 42.0587 31.1928 42.4569 31.1206C42.8545 31.0484 43.1212 30.6643 43.0487 30.2668L40.4634 16.0172C40.391 15.6188 40.0066 15.351 39.6082 15.4234ZM27.2154 22.9772L24.8557 23.4051C23.3635 23.6754 22.3628 25.1182 22.6341 26.6107L22.6342 26.6115C22.9045 28.1035 24.3479 29.1026 25.8403 28.8313L28.2001 28.4034L27.2154 22.9772ZM29.2869 22.8615L30.1803 27.7841C33.5348 27.6146 36.6287 27.965 39.1834 28.7349L37.3823 18.8084C35.2604 20.426 32.4867 21.8412 29.2869 22.8615ZM28.6778 30.4093L27.639 30.5976C28.1129 32.1428 28.9445 34.854 29.2129 35.7285L30.1948 35.4107L28.6778 30.4093ZM61.3892 9.3047V4.74941C61.3892 3.26338 60.1847 2.05882 58.6988 2.05882H14.5929C13.107 2.05882 11.9025 3.26338 11.9025 4.74941V9.3047H61.3892ZM43.3738 7.15235C42.5622 7.15235 41.9032 6.49338 41.9032 5.68176C41.9032 4.87015 42.5622 4.21118 43.3738 4.21118C44.1854 4.21118 44.8444 4.87015 44.8444 5.68176C44.8444 6.49338 44.1854 7.15235 43.3738 7.15235ZM56.4848 7.15235C55.6732 7.15235 55.0142 6.49338 55.0142 5.68176C55.0142 4.87015 55.6732 4.21118 56.4848 4.21118C57.2965 4.21118 57.9554 4.87015 57.9554 5.68176C57.9554 6.49338 57.2965 7.15235 56.4848 7.15235ZM49.9292 7.15235C49.1176 7.15235 48.4587 6.49338 48.4587 5.68176C48.4587 4.87015 49.1176 4.21118 49.9292 4.21118C50.741 4.21118 51.3998 4.87015 51.3998 5.68176C51.3998 6.49338 50.741 7.15235 49.9292 7.15235Z" fill="#141751"/>
</svg>
