<svg width="75" height="76" viewBox="0 0 75 76" fill="none" xmlns="http://www.w3.org/2000/svg">
<g id="Frame" clip-path="url(#clip0_713_673)">
<g id="18. google ads logo">
<path id="Vector" d="M73.1094 51.2656C54.9531 19.8281 46.9999 6.50002 44.8281 5.67188C43.2025 4.68275 41.3931 4.03383 39.5095 3.76439C37.6258 3.49495 35.707 3.6106 33.8693 4.10435C32.0317 4.5981 30.3133 5.45967 28.8183 6.63689C27.3233 7.81411 26.0828 9.28249 25.1719 10.9531C22.7969 15.0156 33.7031 -3.85937 2.01561 51.0469C0.690445 53.2382 -0.00683332 55.7517 -1.14549e-05 58.3125C-1.14549e-05 72.6719 19.0937 77.7188 26.2344 65.3438C27.3437 63.4063 22.2344 72.2813 37.5 45.8125L48.75 65.3438C50.6148 68.574 53.6864 70.9312 57.2892 71.8967C60.8919 72.8622 64.7307 72.357 67.9609 70.4922C71.1912 68.6274 73.5483 65.5558 74.5139 61.953C75.4794 58.3503 74.9742 54.5115 73.1094 51.2813V51.2656ZM14.0625 69.25C12.1415 69.2522 10.2539 68.7483 8.58945 67.7893C6.92504 66.8302 5.54258 65.4496 4.58117 63.7866C3.61975 62.1235 3.1133 60.2365 3.11276 58.3156C3.11223 56.3946 3.61763 54.5074 4.57811 52.8438C4.61836 52.7782 4.65488 52.7104 4.68749 52.6406C11.2656 41.7813 28.3594 49.1719 24.4375 61.6094C23.7396 63.8172 22.359 65.7465 20.4945 67.1196C18.6301 68.4927 16.378 69.2386 14.0625 69.25ZM27.9531 56.125C27.6269 54.0541 26.8417 52.0823 25.6551 50.354C24.4685 48.6257 22.9105 47.1845 21.0951 46.136C19.2797 45.0875 17.2528 44.4582 15.1627 44.294C13.0727 44.1299 10.9724 44.4352 9.01561 45.1875L23.6094 19.9063C24.1875 23.5625 25.2812 24.6875 35.6875 42.7344L27.9531 56.125ZM60.9375 69.25C59.0181 69.2494 57.1327 68.7438 55.4707 67.7838C53.8086 66.8239 52.4284 65.4435 51.4687 63.7813C25.5937 18.9688 26.5625 21.625 26.5625 17.6875C26.5637 15.7849 27.0612 13.9155 28.0058 12.2639C28.9504 10.6124 30.3095 9.23582 31.9489 8.27019C33.5883 7.30456 35.4512 6.78327 37.3536 6.75781C39.2561 6.73235 41.1322 7.2036 42.7969 8.12501C46.1094 9.59376 45.6094 9.875 70.3125 52.6406C71.3195 54.301 71.8663 56.1996 71.8967 58.1413C71.9271 60.0829 71.44 61.9977 70.4855 63.6888C69.531 65.3799 68.1434 66.7864 66.4654 67.7638C64.7874 68.7411 62.8794 69.2541 60.9375 69.25Z" fill="white"/>
</g>
</g>
<defs>
<clipPath id="clip0_713_673">
<rect width="75" height="75" fill="white" transform="translate(0 0.5)"/>
</clipPath>
</defs>
</svg>
