<svg width="75" height="75" viewBox="0 0 75 75" fill="none" xmlns="http://www.w3.org/2000/svg">
<g id="Layer_1" clip-path="url(#clip0_713_680)">
<path id="Vector" d="M65.5005 11.3647H48.5742C48.3325 9.06944 47.3379 7.08864 45.5815 5.38105C41.124 1.05658 33.876 1.05658 29.4229 5.38105C27.6665 7.08721 26.6704 9.06944 26.4287 11.3647H9.50244C5.23389 11.3647 1.76074 14.7372 1.76074 18.881V58.5042C1.76074 62.6507 5.23389 66.0247 9.50244 66.0247H28.6992L26.4565 72.7241H19.9585C19.311 72.7241 18.7852 73.2335 18.7852 73.8639C18.7852 74.4943 19.3096 75.0037 19.9585 75.0037H27.3032H27.3076H27.312H47.6865H47.6909H47.6953H55.04C55.6875 75.0037 56.2134 74.4943 56.2134 73.8639C56.2134 73.2335 55.689 72.7241 55.04 72.7241H48.5435L46.3037 66.0247H65.5005C69.7676 66.0247 73.2378 62.6507 73.2378 58.5042V18.881C73.2393 14.7372 69.7676 11.3647 65.5005 11.3647ZM70.8926 18.881V53.1694H54.2256L51.0732 47.8644C50.3232 46.6094 48.8599 45.9989 47.4683 46.238L45.5244 42.9694C51.4688 38.9622 53.3599 31.1073 49.6802 24.9201C48.7822 23.4032 47.6221 22.0983 46.2217 21.0283C46.8604 19.7376 47.4126 18.4413 47.8242 17.1591C48.2212 15.9211 48.4731 14.75 48.5771 13.6444H65.5005C68.4741 13.6444 70.8926 15.9937 70.8926 18.881ZM47.1138 50.0857C46.8091 49.5706 46.9922 48.9089 47.5225 48.6087C48.0527 48.3127 48.7354 48.492 49.0415 49.0071L52.5044 54.8343C52.519 54.8627 52.5352 54.8898 52.5527 54.9168L54.0205 57.3857C54.1685 57.6347 54.208 57.9264 54.1304 58.2067C54.0527 58.4857 53.8711 58.719 53.6133 58.8627C53.3599 59.0065 53.061 59.0435 52.771 58.968C52.4824 58.8926 52.2422 58.7162 52.0942 58.4672L47.1138 50.0857ZM29.8755 23.1058C31.0239 25.1606 32.3174 27.1727 33.5288 29.0539C34.1016 29.9433 34.6421 30.7843 35.1562 31.6096C35.6689 32.4221 36.5229 32.8889 37.5015 32.8889C38.4697 32.8889 39.3472 32.4079 39.8467 31.6054C40.3579 30.7857 40.8984 29.9447 41.4712 29.0539C42.6841 27.1699 43.9775 25.1578 45.126 23.1016C46.1323 23.9354 46.9761 24.9258 47.647 26.0585C49.2129 28.6911 49.6289 31.759 48.8188 34.6947C48.0088 37.6303 46.0693 40.0864 43.3594 41.6076C40.6479 43.1273 37.4897 43.5314 34.4663 42.7431C31.4429 41.9562 28.916 40.0721 27.3516 37.4382C24.5142 32.6683 25.6582 26.6149 29.8755 23.1058ZM31.0811 6.9933C32.8506 5.27432 35.1753 4.41484 37.5 4.41484C39.8247 4.41484 42.1509 5.27432 43.9219 6.99187C45.4746 8.50167 46.2554 10.2676 46.2832 12.4007C46.2803 12.4348 46.2773 12.469 46.2773 12.5031C46.2773 12.5444 46.2803 12.5842 46.2847 12.6241C46.2715 13.7938 46.0371 15.073 45.5859 16.4804C44.3804 20.2371 41.7773 24.2784 39.4819 27.8458C38.9048 28.7437 38.3584 29.5904 37.8384 30.4271C37.7593 30.5538 37.6553 30.6107 37.5015 30.6107C37.3462 30.6107 37.2393 30.5523 37.1602 30.4257C36.6401 29.5918 36.0952 28.7437 35.5181 27.8472C33.2227 24.2812 30.6211 20.2385 29.4155 16.4818C28.96 15.0645 28.7271 13.7767 28.7183 12.5999C28.7212 12.5686 28.7227 12.5373 28.7227 12.506C28.7227 12.4804 28.7197 12.4562 28.7183 12.432C28.7402 10.2847 29.521 8.51021 31.0811 6.9933ZM9.50244 13.6444H26.4229C26.5269 14.7514 26.7773 15.9211 27.1743 17.1606C27.5859 18.4441 28.1396 19.7419 28.7783 21.0325C26.2808 22.9465 24.5259 25.6188 23.7979 28.6612C22.9878 32.0465 23.5283 35.5698 25.3198 38.5794C27.1978 41.7399 30.23 44.001 33.8599 44.9459C35.0728 45.2618 36.3032 45.4183 37.5249 45.4183C39.5771 45.4183 41.6074 44.9758 43.4927 44.1106L45.4365 47.3792C44.5254 48.4322 44.3364 49.9691 45.082 51.2256L46.2378 53.1708H4.10742V18.881C4.10742 15.9937 6.52734 13.6444 9.50244 13.6444ZM46.0781 72.7255H28.9233L31.166 66.0261H43.8369L46.0781 72.7255ZM65.5005 63.7465H44.6836C44.6792 63.7465 44.6748 63.7465 44.6719 63.7465H30.3325C30.3296 63.7465 30.3281 63.7465 30.3252 63.7465H9.50244C6.52734 63.7465 4.10596 61.3957 4.10596 58.5042V55.449H47.5928L50.064 59.6055C50.5239 60.3811 51.271 60.936 52.166 61.1694C52.4648 61.2477 52.7681 61.2861 53.0684 61.2861C53.6675 61.2861 54.2578 61.1338 54.7866 60.835C55.585 60.3882 56.1562 59.6639 56.395 58.7959C56.6353 57.9264 56.5122 57.02 56.0508 56.2444L55.5776 55.449H70.8896V58.5042C70.8926 61.3942 68.4741 63.7465 65.5005 63.7465ZM37.5015 56.1349C35.5356 56.1349 33.936 57.6888 33.936 59.5984C33.936 61.5081 35.5356 63.062 37.5015 63.062C39.4644 63.062 41.0625 61.5081 41.0625 59.5984C41.0625 57.6888 39.4658 56.1349 37.5015 56.1349ZM37.5015 60.7809C36.8291 60.7809 36.2827 60.2502 36.2827 59.597C36.2827 58.9439 36.8291 58.4131 37.5015 58.4131C38.1709 58.4131 38.7158 58.9439 38.7158 59.597C38.7158 60.2502 38.1724 60.7809 37.5015 60.7809ZM37.5015 18.6092C40.667 18.6092 43.2422 16.1076 43.2422 13.0325C43.2422 9.95739 40.667 7.45577 37.5015 7.45577C34.3359 7.45577 31.7607 9.95739 31.7607 13.0325C31.7607 16.1076 34.3374 18.6092 37.5015 18.6092ZM37.5015 9.7354C39.3735 9.7354 40.8955 11.2153 40.8955 13.0325C40.8955 14.8496 39.3721 16.3295 37.5015 16.3295C35.6309 16.3295 34.1074 14.8496 34.1074 13.0325C34.1074 11.2153 35.6309 9.7354 37.5015 9.7354Z" fill="#141751"/>
</g>
<defs>
<clipPath id="clip0_713_680">
<rect width="75" height="75" fill="white"/>
</clipPath>
</defs>
</svg>
