<svg width="75" height="60" viewBox="0 0 75 60" fill="none" xmlns="http://www.w3.org/2000/svg">
<g id="Capa_1">
<g id="Group">
<path id="Vector" d="M52.6707 5C46.7672 5 42.1536 9.64606 37.9749 15.5493C32.2334 7.90927 27.4338 5 21.6893 5C9.97525 5 1 20.9289 1 37.792C1 48.3444 5.88359 55 14.0669 55C19.9554 55 24.1911 52.1001 31.7204 38.3438C31.7204 38.3438 34.8582 32.5503 37.018 28.5626C37.7739 29.8385 38.5689 31.2117 39.4088 32.6883L42.9395 38.8955C49.8179 50.9214 53.6486 55 60.593 55C68.5634 55 73 48.2535 73 37.4817C72.994 19.8254 63.8178 5 52.6707 5ZM25.9759 34.6194C19.8714 44.62 17.7596 46.8616 14.3609 46.8616C10.8632 46.8616 8.78435 43.6513 8.78435 37.93C8.78435 25.6878 14.6249 13.1729 21.5873 13.1729C25.358 13.1729 28.5077 15.4489 33.3343 22.6688C28.7537 30.011 25.9759 34.6194 25.9759 34.6194ZM60.752 46.8616C57.2753 46.8616 55.6134 44.4633 49.014 33.3623L44.7933 26.0045C43.6504 24.0639 42.5555 22.2801 41.4996 20.6436C45.3033 14.5084 48.441 11.4487 52.1757 11.4487C59.9301 11.4487 66.1336 23.3805 66.1336 38.0334C66.1306 43.62 64.3817 46.8616 60.752 46.8616Z" stroke="#141751" stroke-width="2"/>
</g>
</g>
</svg>
