<svg width="75" height="76" viewBox="0 0 75 76" fill="none" xmlns="http://www.w3.org/2000/svg">
<g id="Frame">
<g id="rocket-startup">
<path id="Vector" d="M26.7281 22.5051C25.3056 23.9211 24.1786 25.6056 23.4125 27.4609C22.6464 29.3161 22.2566 31.305 22.2656 33.3121C22.2656 33.6229 22.3891 33.921 22.6089 34.1408C22.8286 34.3605 23.1267 34.484 23.4375 34.484H30.4688V35.6559C30.4688 35.9667 30.5922 36.2648 30.812 36.4845C31.0318 36.7043 31.3298 36.8278 31.6406 36.8278H33.5297L32.8723 38.8012C32.8136 38.9774 32.7976 39.165 32.8257 39.3485C32.8537 39.5321 32.925 39.7063 33.0336 39.8569C33.1422 40.0076 33.285 40.1302 33.4503 40.2148C33.6157 40.2994 33.7987 40.3434 33.9844 40.3434H41.0156C41.2013 40.3434 41.3844 40.2994 41.5497 40.2148C41.715 40.1302 41.8578 40.0076 41.9664 39.8569C42.075 39.7063 42.1463 39.5321 42.1743 39.3485C42.2024 39.165 42.1864 38.9774 42.1277 38.8012L41.4703 36.8278H43.3594C43.6702 36.8278 43.9682 36.7043 44.188 36.4845C44.4078 36.2648 44.5313 35.9667 44.5313 35.6559V34.484H51.5625C51.8733 34.484 52.1714 34.3605 52.3911 34.1408C52.6109 33.921 52.7344 33.6229 52.7344 33.3121V32.7485C52.7354 30.5507 52.2604 28.3788 51.342 26.3821C50.4236 24.3854 49.0835 22.6114 47.4141 21.1821L44.5313 18.7106V15.9742C44.5363 13.2866 43.6963 10.6654 42.1301 8.48128L38.4539 3.33441C38.3402 3.19029 38.1952 3.07382 38.03 2.99375C37.8648 2.91367 37.6836 2.87207 37.5 2.87207C37.3164 2.87207 37.1352 2.91367 36.97 2.99375C36.8048 3.07382 36.6598 3.19029 36.5461 3.33441L32.8699 8.48128C31.3037 10.6654 30.4637 13.2866 30.4688 15.9742V18.7645L26.7281 22.5051ZM24.6586 32.1403C24.9184 29.1239 26.2387 26.2972 28.3852 24.1621L30.4688 22.0785V32.1403H24.6586ZM42.1875 15.9742V29.7965H32.8125V15.9742C32.8125 15.8934 32.8289 15.8149 32.8313 15.734H42.1688C42.1711 15.8149 42.1875 15.8934 42.1875 15.9742ZM39.3902 37.9996H35.6098L36.0012 36.8278H38.9988L39.3902 37.9996ZM42.1875 34.484H32.8125V32.1403H42.1875V34.484ZM45.8895 22.961C47.2241 24.1039 48.3106 25.5079 49.0823 27.0866C49.854 28.6652 50.2945 30.385 50.3766 32.1403H44.5313V21.7973L45.8895 22.961ZM37.5 6.03206L40.2223 9.843C40.9773 10.9141 41.5246 12.1173 41.8359 13.3903H33.1641C33.4757 12.1173 34.0235 10.914 34.7789 9.843L37.5 6.03206Z" fill="#141751"/>
<path id="Vector_2" d="M37.5 25.1094C38.1953 25.1094 38.875 24.9032 39.4532 24.5169C40.0313 24.1306 40.4819 23.5815 40.748 22.9391C41.0141 22.2967 41.0837 21.5899 40.9481 20.9079C40.8124 20.2259 40.4776 19.5995 39.9859 19.1078C39.4943 18.6162 38.8678 18.2813 38.1859 18.1457C37.5039 18.01 36.797 18.0796 36.1546 18.3457C35.5122 18.6118 34.9632 19.0624 34.5769 19.6406C34.1906 20.2187 33.9844 20.8984 33.9844 21.5938C33.9844 22.5262 34.3548 23.4204 35.0141 24.0797C35.6734 24.739 36.5676 25.1094 37.5 25.1094ZM37.5 20.4219C37.7318 20.4219 37.9583 20.4906 38.1511 20.6194C38.3438 20.7481 38.494 20.9312 38.5827 21.1453C38.6714 21.3594 38.6946 21.5951 38.6494 21.8224C38.6041 22.0497 38.4925 22.2585 38.3286 22.4224C38.1648 22.5863 37.9559 22.6979 37.7286 22.7431C37.5013 22.7883 37.2657 22.7651 37.0515 22.6764C36.8374 22.5877 36.6544 22.4375 36.5256 22.2448C36.3969 22.0521 36.3281 21.8255 36.3281 21.5938C36.3281 21.283 36.4516 20.9849 36.6714 20.7651C36.8911 20.5453 37.1892 20.4219 37.5 20.4219Z" fill="#141751"/>
<path id="Vector_3" d="M69.1406 18.0781H48.0469V20.4219H69.1406C69.4514 20.4219 69.7495 20.5453 69.9693 20.7651C70.189 20.9849 70.3125 21.2829 70.3125 21.5938V40.7609C67.7114 41.3763 65.32 42.6702 63.382 44.5109C61.0487 43.6512 58.4862 43.646 56.1494 44.4965C53.8127 45.3469 51.8529 46.9979 50.618 49.1562C49.8206 48.7544 48.9398 48.5456 48.0469 48.5469C46.6966 48.5486 45.3883 49.0157 44.3423 49.8696C43.2963 50.7235 42.5767 51.9118 42.3047 53.2344H31.6406C31.6388 51.3701 30.8974 49.5828 29.5792 48.2646C28.261 46.9464 26.4736 46.205 24.6094 46.2031C24.1844 46.2028 23.7603 46.242 23.3426 46.3203C23.1542 45.2929 22.6945 44.3345 22.0113 43.5444C21.328 42.7544 20.446 42.1613 19.4565 41.8266C18.467 41.492 17.4061 41.4279 16.3835 41.6411C15.361 41.8543 14.414 42.3369 13.6406 43.0391C11.1618 40.81 8.01227 39.4682 4.6875 39.2246V21.5938C4.6875 21.2829 4.81097 20.9849 5.03073 20.7651C5.2505 20.5453 5.54857 20.4219 5.85938 20.4219H26.9531V18.0781H5.85938C4.92697 18.0781 4.03276 18.4485 3.37345 19.1078C2.71415 19.7671 2.34375 20.6613 2.34375 21.5938V59.0938C2.34375 60.0262 2.71415 60.9204 3.37345 61.5797C4.03276 62.239 4.92697 62.6094 5.85938 62.6094H31.6406V66.125H26.9531C26.6423 66.125 26.3443 66.2485 26.1245 66.4682C25.9047 66.688 25.7812 66.9861 25.7812 67.2969V70.8125H23.4375V73.1562H51.5625V70.8125H49.2188V67.2969C49.2188 66.9861 49.0953 66.688 48.8755 66.4682C48.6557 66.2485 48.3577 66.125 48.0469 66.125H43.3594V62.6094H69.1406C70.073 62.6094 70.9672 62.239 71.6265 61.5797C72.2859 60.9204 72.6562 60.0262 72.6562 59.0938V21.5938C72.6562 20.6613 72.2859 19.7671 71.6265 19.1078C70.9672 18.4485 70.073 18.0781 69.1406 18.0781ZM48.0469 50.8906C48.8838 50.8965 49.6906 51.204 50.3191 51.7566C50.4599 51.8774 50.6273 51.963 50.8075 52.0064C50.9878 52.0498 51.1758 52.0499 51.3561 52.0065C51.5364 51.9632 51.7038 51.8777 51.8446 51.757C51.9854 51.6364 52.0955 51.484 52.166 51.3125C52.5814 50.287 53.2005 49.3565 53.9859 48.5771C54.7713 47.7978 55.7066 47.1859 56.7352 46.7783C57.7638 46.3708 58.8645 46.1762 59.9705 46.2062C61.0765 46.2363 62.1649 46.4904 63.1699 46.9531C63.3912 47.0538 63.6383 47.0833 63.8771 47.0373C64.1158 46.9913 64.3343 46.8722 64.5023 46.6965C66.0898 45.0276 68.0965 43.8159 70.3125 43.1879V53.2344H44.7469C44.9884 52.5513 45.435 51.9595 46.0257 51.5399C46.6164 51.1204 47.3223 50.8936 48.0469 50.8906ZM12.8578 45.5422C12.9764 45.6697 13.1224 45.7684 13.2849 45.831C13.4473 45.8935 13.6219 45.9182 13.7953 45.9031C13.9695 45.889 14.1382 45.8361 14.2893 45.7483C14.4404 45.6605 14.5699 45.54 14.6684 45.3957C15.0908 44.7727 15.702 44.3017 16.4121 44.0521C17.1223 43.8025 17.8937 43.7873 18.6131 44.0089C19.3325 44.2305 19.9617 44.6771 20.4083 45.2831C20.8548 45.889 21.0951 46.6223 21.0938 47.375C21.0911 47.4465 21.0837 47.5178 21.0715 47.5883L21.048 47.7676C21.0256 47.9724 21.0575 48.1796 21.1406 48.3682C21.2238 48.5567 21.3551 48.72 21.5215 48.8416C21.6879 48.9632 21.8834 49.0388 22.0884 49.0607C22.2933 49.0826 22.5003 49.0501 22.6887 48.9664C23.4015 48.6409 24.1849 48.5 24.9665 48.5568C25.7481 48.6135 26.5028 48.8662 27.1612 49.2913C27.8195 49.7165 28.3602 50.3006 28.7334 50.9897C29.1066 51.6787 29.3004 52.4507 29.2969 53.2344H4.6875V41.5742C7.8051 41.8512 10.7125 43.2632 12.8578 45.5422ZM46.875 70.8125H28.125V68.4688H46.875V70.8125ZM41.0156 66.125H33.9844V62.6094H41.0156V66.125ZM69.1406 60.2656H5.85938C5.54857 60.2656 5.2505 60.1422 5.03073 59.9224C4.81097 59.7026 4.6875 59.4046 4.6875 59.0938V55.5781H70.3125V59.0938C70.3125 59.4046 70.189 59.7026 69.9693 59.9224C69.7495 60.1422 69.4514 60.2656 69.1406 60.2656Z" fill="#141751"/>
<path id="Vector_4" d="M33.9844 45.0312C33.9844 46.5289 35.768 49.2746 36.5355 50.3844C36.6433 50.5405 36.7874 50.6682 36.9554 50.7563C37.1234 50.8445 37.3103 50.8906 37.5 50.8906C37.6897 50.8906 37.8766 50.8445 38.0446 50.7563C38.2126 50.6682 38.3567 50.5405 38.4645 50.3844C39.232 49.2746 41.0156 46.5289 41.0156 45.0312C41.0156 44.0988 40.6452 43.2046 39.9859 42.5453C39.3266 41.886 38.4324 41.5156 37.5 41.5156C36.5676 41.5156 35.6734 41.886 35.0141 42.5453C34.3548 43.2046 33.9844 44.0988 33.9844 45.0312ZM38.6719 45.0312C38.4178 45.927 38.0222 46.7764 37.5 47.5473C36.9776 46.7765 36.582 45.9271 36.3281 45.0312C36.3281 44.7204 36.4516 44.4224 36.6714 44.2026C36.8911 43.9828 37.1892 43.8594 37.5 43.8594C37.8108 43.8594 38.1089 43.9828 38.3286 44.2026C38.5484 44.4224 38.6719 44.7204 38.6719 45.0312Z" fill="#141751"/>
<path id="Vector_5" d="M48.0469 35.6562H45.7031V40.3438H48.0469V35.6562Z" fill="#141751"/>
<path id="Vector_6" d="M51.5625 35.6562H49.2188V38H51.5625V35.6562Z" fill="#141751"/>
<path id="Vector_7" d="M29.2969 35.6562H26.9531V40.3438H29.2969V35.6562Z" fill="#141751"/>
<path id="Vector_8" d="M25.7812 35.6562H23.4375V38H25.7812V35.6562Z" fill="#141751"/>
</g>
</g>
</svg>
