<svg width="1520" height="651" viewBox="0 0 1520 651" fill="none" xmlns="http://www.w3.org/2000/svg">
<path d="M6.95486 70.3924C2.97497 70.9168 0 74.3095 0 78.3238V388.362C0 388.379 4.99566e-05 388.395 0.000149727 388.412V621.05C0.000149727 625.625 3.8285 629.267 8.397 629.041L707.197 594.333C707.882 594.299 708.567 594.353 709.238 594.493L976.573 650.605C977.386 650.775 978.221 650.818 979.047 650.732L1512.83 595.03C1516.91 594.604 1520 591.17 1520 587.073V344.862C1520 344.847 1520 344.833 1520 344.818V35.4081C1520 30.7929 1516.11 27.1349 1511.5 27.4238L813.068 71.2276C812.21 71.2814 811.349 71.1966 810.518 70.9763L543.728 0.266991C542.719 -0.000362039 541.668 -0.0677715 540.633 0.0685657L6.95486 70.3924Z" fill="#141751"/>
</svg>
