<svg width="390" height="741" viewBox="0 0 390 741" fill="none" xmlns="http://www.w3.org/2000/svg">
<path d="M151.773 32.3631C151.189 32.5066 150.58 32.5165 149.992 32.3921L4.8273 1.70504C2.34021 1.17928 0 3.07652 0 5.61857V736.685C0 738.894 1.79087 740.685 4.00001 740.685H109.798C110.12 740.685 110.44 740.646 110.752 740.569L239.227 709.006C239.811 708.863 240.42 708.853 241.008 708.977L386.173 739.664C388.66 740.19 391 738.293 391 735.751V4.68457C391 2.47543 389.209 0.68457 387 0.68457H281.202C280.88 0.68457 280.56 0.723352 280.248 0.800079L151.773 32.3631Z" fill="#141751"/>
</svg>
